<?xml version="1.0" encoding="UTF-8"?>
<svg width="52px" height="34px" viewBox="0 0 52 34" version="1.1" xmlns="http://www.w3.org/2000/svg" xmlns:xlink="http://www.w3.org/1999/xlink">
    <!-- Generator: Sketch 59.1 (86144) - https://sketch.com -->
    <title>logo</title>
    <desc>Created with Sketch.</desc>
    <g id="Page-1" stroke="none" stroke-width="1" fill="none" fill-rule="evenodd">
        <g id="Intro" transform="translate(-524.000000, -263.000000)" fill="#CC003C" fill-rule="nonzero">
            <g id="logo" transform="translate(524.550000, 263.860000)">
                <path d="M-4.54747351e-13,2.64 C-4.54747351e-13,1.9199964 0.4599954,1.3400022 1.38,0.9 C1.5400008,0.83599968 1.75119917,0.765600192 2.0135994,0.688800154 L2.22,0.63 C2.5800018,0.5299995 2.959998,0.4300005 3.36,0.33 C3.760002,0.2299995 4.1499981,0.1500003 4.53,0.09 L4.88000062,0.0399998667 C5.09333373,0.0133332 5.266666,2.84217094e-14 5.4,2.84217094e-14 C6.1600038,2.84217094e-14 6.54,0.5 6.54,1.5 C6.54,1.99000245 6.50171913,2.59484107 6.42515639,3.31453013 L6.39,3.63 C6.2899995,4.4900043 6.24,5.3999952 6.24,6.36 C6.24,7.2800046 6.5799966,8.4599928 7.26,9.9 C7.9400034,11.3400072 8.8399944,12.8699919 9.96,14.49 C11.0800056,16.1100081 12.3799926,17.7399918 13.86,19.38 C15.3400074,21.0200082 16.8899919,22.5 18.51,23.82 C20.1300081,25.1400066 21.7599918,26.2099959 23.4,27.03 C25.0400082,27.8500041 26.5999926,28.26 28.08,28.26 C30.1200102,28.26 31.9599918,27.8000046 33.6,26.88 C35.2400082,25.9599954 36.6999936,24.7800072 37.98,23.34 C39.2600064,21.8999928 40.3599954,20.3000088 41.28,18.54 C42.2000046,16.7799912 42.9499971,15.0500085 43.53,13.35 C44.1100029,11.6499915 44.5399986,10.0800072 44.82,8.64 C45.1000014,7.1999928 45.24,6.1000038 45.24,5.34 C45.24,4.0199934 45.2999994,2.9900037 45.42,2.25 C45.5400006,1.5099963 45.9599964,1.14 46.68,1.14 C47.080002,1.14 48.1399914,1.539996 49.86,2.34 C50.2200018,2.540001 50.4799992,2.739999 50.64,2.94 C50.8000008,3.140001 50.88,3.4599978 50.88,3.9 L50.8704499,4.01128033 C50.8226994,4.35591631 50.5958844,5.19881682 50.19,6.54 C49.7299977,8.0600076 49.0300047,9.8799894 48.09,12 C47.1499953,14.1200106 45.9900069,16.379988 44.61,18.78 C43.2299931,21.180012 41.6200092,23.3899899 39.78,25.41 C37.9399908,27.4300101 35.8800114,29.1099933 33.6,30.45 C31.3199886,31.7900067 28.8000138,32.46 26.04,32.46 C24.439992,32.46 22.6900095,31.8900057 20.79,30.75 C18.8899905,29.6099943 16.9800096,28.140009 15.06,26.34 C13.1399904,24.539991 11.2700091,22.5200112 9.45,20.28 C7.6299909,18.0399888 6.020007,15.8100111 4.62,13.59 C3.219993,11.3699889 2.1000042,9.2900097 1.26,7.35 C0.4199958,5.4099903 -4.54747351e-13,3.840006 -4.54747351e-13,2.64 Z" id="U"></path>
            </g>
        </g>
    </g>
</svg>