<?xml version="1.0" encoding="UTF-8"?>
<svg width="24px" height="24px" viewBox="0 0 24 24" version="1.1" xmlns="http://www.w3.org/2000/svg" xmlns:xlink="http://www.w3.org/1999/xlink">
    <!-- Generator: Sketch 58 (84663) - https://sketch.com -->
    <title>icon-settings</title>
    <desc>Created with Sketch.</desc>
    <g id="Page-1" stroke="none" stroke-width="1" fill="none" fill-rule="evenodd">
        <g id="Editor" transform="translate(-537.000000, -720.000000)" fill="#111918" fill-rule="nonzero">
            <g id="Nav" transform="translate(481.000000, 720.000000)">
                <path d="M80,15 L80,9 L77.541,9 C77.364,8.436 77.133,7.896 76.864,7.379 L78.607,5.636 L74.364,1.393 L72.621,3.136 C72.105,2.866 71.565,2.636 71,2.459 L71,0 L65,0 L65,2.459 C64.436,2.636 63.896,2.867 63.379,3.136 L61.636,1.393 L57.393,5.636 L59.136,7.379 C58.866,7.895 58.636,8.435 58.459,9 L56,9 L56,15 L58.459,15 C58.636,15.564 58.867,16.104 59.136,16.621 L57.393,18.364 L61.636,22.607 L63.379,20.864 C63.895,21.134 64.435,21.364 65,21.541 L65,24 L71,24 L71,21.541 C71.564,21.364 72.104,21.133 72.621,20.864 L74.364,22.607 L78.607,18.364 L76.864,16.621 C77.134,16.105 77.364,15.565 77.541,15 L80,15 Z M76.073,13 L75.633,14.401 C75.499,14.828 75.316,15.264 75.091,15.695 L74.411,16.997 L75.779,18.365 L74.365,19.779 L72.997,18.411 L71.695,19.091 C71.264,19.316 70.828,19.499 70.401,19.633 L69,20.073 L69,22 L67,22 L67,20.073 L65.599,19.633 C65.172,19.499 64.736,19.316 64.305,19.091 L63.003,18.411 L61.635,19.779 L60.221,18.365 L61.589,16.997 L60.909,15.695 C60.684,15.264 60.501,14.828 60.367,14.401 L59.927,13 L58,13 L58,11 L59.927,11 L60.367,9.599 C60.501,9.172 60.684,8.736 60.909,8.305 L61.589,7.003 L60.222,5.636 L61.636,4.222 L63.004,5.59 L64.306,4.91 C64.737,4.685 65.173,4.502 65.6,4.368 L67,3.927 L67,2 L69,2 L69,3.927 L70.401,4.367 C70.828,4.501 71.264,4.684 71.695,4.909 L72.997,5.589 L74.365,4.221 L75.779,5.635 L74.411,7.003 L75.091,8.305 C75.316,8.736 75.499,9.172 75.633,9.599 L76.073,11 L78,11 L78,13 L76.073,13 Z M68,9 C66.343,9 65,10.343 65,12 C65,13.657 66.343,15 68,15 C69.657,15 71,13.657 71,12 C71,10.343 69.657,9 68,9 Z M68,13 C67.449,13 67,12.551 67,12 C67,11.449 67.449,11 68,11 C68.551,11 69,11.449 69,12 C69,12.551 68.551,13 68,13 Z" id="settings"></path>
            </g>
        </g>
    </g>
</svg>