<?xml version="1.0" encoding="UTF-8"?>
<svg width="24px" height="24px" viewBox="0 0 24 24" version="1.1" xmlns="http://www.w3.org/2000/svg" xmlns:xlink="http://www.w3.org/1999/xlink">
    <!-- Generator: Sketch 59 (86127) - https://sketch.com -->
    <title>icon-remove</title>
    <desc>Created with Sketch.</desc>
    <g id="Page-1" stroke="none" stroke-width="1" fill="none" fill-rule="evenodd">
        <g id="Editor" transform="translate(-453.000000, -720.000000)" fill="#111918" fill-rule="nonzero">
            <g id="Nav" transform="translate(453.000000, 720.000000)">
                <path d="M19.031,21.6225 L23.445,17.1055 C24.186,16.3475 24.186,15.1075 23.445,14.3495 L9.98,0.5685 C9.24,-0.1895 8.028,-0.1895 7.287,0.5685 L0.555,7.4585 C-0.185,8.2165 -0.185,9.4565 0.555,10.2145 L11.701,21.6215 C11.83,21.7535 11.986,21.8785 12.153,21.9995 L1.95399252e-14,21.9995 L1.95399252e-14,23.9995 L24,23.9995 L24,21.9995 L18.579,21.9995 C18.745,21.8795 18.902,21.7545 19.031,21.6225 Z M12.219,19.3965 L7.905,14.9815 L14.637,8.0915 L18.951,12.5065 L12.219,19.3965 Z M17.684,20.2445 C17.301,20.6365 16.322,21.0515 15.78,21.0515 L14.952,21.0515 C14.629,21.0515 14.16,20.8975 13.745,20.6955 L20.349,13.9365 L22.098,15.7265 L17.684,20.2445 Z M8.629,1.9495 C8.629,1.9495 8.631,1.9485 8.634,1.9485 L8.634,1.9465 L13.239,6.6595 L6.507,13.5495 L1.902,8.8365 L8.629,1.9495 Z" id="remove"></path>
            </g>
        </g>
    </g>
</svg>